<?xml version="1.0" encoding="utf-8"?>
<!-- Generator: Adobe Illustrator 24.3.0, SVG Export Plug-In . SVG Version: 6.00 Build 0)  -->
<svg version="1.1" id="Layer_1" xmlns="http://www.w3.org/2000/svg" xmlns:xlink="http://www.w3.org/1999/xlink" x="0px" y="0px"
	 viewBox="0 0 300 300" enable-background="new 0 0 300 300" xml:space="preserve">
<g>
	<g>
		<g>
			<circle fill="#7FD3B9" cx="58.538" cy="193.041" r="37.661"/>
		</g>
		<g>
			
				<ellipse transform="matrix(0.1891 -0.982 0.982 0.1891 -41.7122 131.1259)" fill="#7FD3B9" cx="58.538" cy="90.819" rx="37.661" ry="37.661"/>
		</g>
		<g>
			<path fill="#FFDA88" d="M72.64,98.159c0-2.864-0.836-5.086-2.496-6.699c-1.676-1.608-3.935-2.926-6.825-3.951
				c-2.89-1.035-4.66-1.792-5.344-2.285c-0.667-0.494-0.993-1.287-0.993-2.375c0-0.673,0.284-1.251,0.862-1.713
				c0.583-0.473,1.271-0.693,2.086-0.693c1.629,0,3.389,0.982,5.28,2.963l6.526-4.141c-2.464-2.616-5.128-4.256-7.997-4.959
				c0.016-0.137,0.084-0.268,0.084-0.405c0-1.114-0.441-2.223-1.287-3.074c-1.624-1.534-4.272-1.618-6.069,0.079
				c-0.757,0.773-1.187,1.881-1.187,2.995c0,0.247,0.095,0.478,0.137,0.715c-1.487,0.473-2.821,1.172-3.967,2.107
				c-2.327,1.876-3.473,4.298-3.473,7.256c0,4.913,3.237,8.459,9.688,10.64c1.65,0.546,2.553,0.909,2.706,1.103
				c0.363,0,0.94,0.231,1.718,0.714c0.777,0.484,1.161,1.183,1.161,2.112c0,0.731-0.342,1.377-1.014,1.949
				c-0.662,0.568-1.44,0.851-2.285,0.851c-1.886,0-3.689-1.56-5.448-4.708l-7.766,3.652c1.65,2.837,3.657,4.939,6.027,6.316
				c0.856,0.504,1.718,0.814,2.585,1.129c-0.021,0.105-0.068,0.221-0.068,0.331c0,1.108,0.431,2.222,1.277,3.068
				c0.773,0.783,1.871,1.203,2.99,1.203c1.114,0,2.264-0.42,3.037-1.287c0.856-0.762,1.334-1.876,1.334-2.984v-0.021
				c0-0.493,3.515-1.245,5.018-2.474C71.437,103.518,72.64,101.038,72.64,98.159z"/>
		</g>
		<g>
			<path fill="#FFDA88" d="M75.146,196.461c-2.574-1.497-5.863-0.625-7.356,1.944c-1.965,3.378-5.427,5.396-9.252,5.396
				c-3.961,0-7.398-2.18-9.263-5.38h3.883c2.974,0,5.38-2.407,5.38-5.38c0-2.974-2.407-5.38-5.38-5.38h-3.883
				c1.865-3.2,5.302-5.38,9.263-5.38c3.825,0,7.287,2.018,9.252,5.396c1.493,2.569,4.781,3.442,7.356,1.944
				c2.57-1.498,3.436-4.787,1.944-7.356c-3.856-6.626-10.965-10.745-18.552-10.745c-9.998,0-18.352,6.883-20.759,16.14h-0.762
				c-2.974,0-5.38,2.407-5.38,5.38c0,2.974,2.406,5.38,5.38,5.38h0.762c2.407,9.258,10.76,16.14,20.759,16.14
				c7.587,0,14.695-4.119,18.552-10.745C78.582,201.248,77.715,197.959,75.146,196.461z"/>
		</g>
		<g>
			<path fill="#FE6F80" d="M280.425,160.923l-86.082-21.52c-1.997-0.515-4.145,0.2-5.469,1.813l-43.156,52.75l-12.426-24.852
				c-0.662-1.324-1.839-2.317-3.252-2.742c-1.403-0.415-2.942-0.252-4.229,0.478l-30.657,17.517c0.662,2.79,1.045,5.685,1.045,8.674
				c0,1.087-0.074,2.154-0.163,3.216l30.174-17.244l13.598,27.195c0.814,1.634,2.401,2.737,4.219,2.942
				c0.2,0.021,0.394,0.032,0.594,0.032c1.603,0,3.137-0.714,4.166-1.976l46.257-56.538l82.777,20.69c2.869,0.71,5.8-1.03,6.52-3.914
				C285.064,164.564,283.309,161.643,280.425,160.923z"/>
		</g>
		<g>
			<path fill="#E5E5E4" d="M58.538,53.158c3.741,0,7.35,0.562,10.76,1.581V20.877h-21.52v33.862
				C51.187,53.72,54.797,53.158,58.538,53.158z"/>
		</g>
		<g>
			<path fill="#E5E5E4" d="M69.298,257.602V229.12c-3.41,1.019-7.02,1.581-10.76,1.581c-3.741,0-7.35-0.562-10.76-1.581v28.482
				v21.52h231.345v-21.52H69.298z"/>
		</g>
		<g>
			<path fill="#E5E5E4" d="M58.538,155.38c3.741,0,7.35,0.562,10.76,1.581v-30.063c-3.41,1.019-7.02,1.581-10.76,1.581
				c-3.741,0-7.35-0.562-10.76-1.581v30.063C51.187,155.942,54.797,155.38,58.538,155.38z"/>
		</g>
		<g>
			<path fill="#E5E5E4" d="M106.959,42.398c0,2.973-2.407,5.38-5.38,5.38h-5.38c-2.974,0-5.38-2.407-5.38-5.38l0,0
				c0-2.974,2.406-5.38,5.38-5.38h5.38C104.552,37.018,106.959,39.424,106.959,42.398L106.959,42.398z"/>
		</g>
		<g>
			<path fill="#E5E5E4" d="M133.859,42.398c0,2.973-2.407,5.38-5.38,5.38h-5.38c-2.974,0-5.38-2.407-5.38-5.38l0,0
				c0-2.974,2.406-5.38,5.38-5.38h5.38C131.453,37.018,133.859,39.424,133.859,42.398L133.859,42.398z"/>
		</g>
		<g>
			<path fill="#E5E5E4" d="M160.76,42.398c0,2.973-2.407,5.38-5.38,5.38H150c-2.974,0-5.38-2.407-5.38-5.38l0,0
				c0-2.974,2.406-5.38,5.38-5.38h5.38C158.353,37.018,160.76,39.424,160.76,42.398L160.76,42.398z"/>
		</g>
		<g>
			<path fill="#E5E5E4" d="M187.66,42.398c0,2.973-2.407,5.38-5.38,5.38h-5.38c-2.974,0-5.38-2.407-5.38-5.38l0,0
				c0-2.974,2.406-5.38,5.38-5.38h5.38C185.254,37.018,187.66,39.424,187.66,42.398L187.66,42.398z"/>
		</g>
		<g>
			<path fill="#E5E5E4" d="M214.561,42.398c0,2.973-2.407,5.38-5.38,5.38h-5.38c-2.974,0-5.38-2.407-5.38-5.38l0,0
				c0-2.974,2.406-5.38,5.38-5.38h5.38C212.154,37.018,214.561,39.424,214.561,42.398L214.561,42.398z"/>
		</g>
		<g>
			<path fill="#E5E5E4" d="M241.461,42.398c0,2.973-2.407,5.38-5.38,5.38h-5.38c-2.974,0-5.38-2.407-5.38-5.38l0,0
				c0-2.974,2.406-5.38,5.38-5.38h5.38C239.055,37.018,241.461,39.424,241.461,42.398L241.461,42.398z"/>
		</g>
		<g>
			<path fill="#E5E5E4" d="M268.362,42.398c0,2.973-2.406,5.38-5.38,5.38h-5.38c-2.974,0-5.38-2.407-5.38-5.38l0,0
				c0-2.974,2.406-5.38,5.38-5.38h5.38C265.955,37.018,268.362,39.424,268.362,42.398L268.362,42.398z"/>
		</g>
		<g>
			<path fill="#E5E5E4" d="M106.959,236.082c0,2.973-2.407,5.38-5.38,5.38h-5.38c-2.974,0-5.38-2.407-5.38-5.38l0,0
				c0-2.974,2.406-5.38,5.38-5.38h5.38C104.552,230.702,106.959,233.108,106.959,236.082L106.959,236.082z"/>
		</g>
		<g>
			<path fill="#E5E5E4" d="M133.859,236.082c0,2.973-2.407,5.38-5.38,5.38h-5.38c-2.974,0-5.38-2.407-5.38-5.38l0,0
				c0-2.974,2.406-5.38,5.38-5.38h5.38C131.453,230.702,133.859,233.108,133.859,236.082L133.859,236.082z"/>
		</g>
		<g>
			<path fill="#E5E5E4" d="M160.76,236.082c0,2.973-2.407,5.38-5.38,5.38H150c-2.974,0-5.38-2.407-5.38-5.38l0,0
				c0-2.974,2.406-5.38,5.38-5.38h5.38C158.353,230.702,160.76,233.108,160.76,236.082L160.76,236.082z"/>
		</g>
		<g>
			<path fill="#E5E5E4" d="M187.66,236.082c0,2.973-2.407,5.38-5.38,5.38h-5.38c-2.974,0-5.38-2.407-5.38-5.38l0,0
				c0-2.974,2.406-5.38,5.38-5.38h5.38C185.254,230.702,187.66,233.108,187.66,236.082L187.66,236.082z"/>
		</g>
		<g>
			<path fill="#E5E5E4" d="M214.561,236.082c0,2.973-2.407,5.38-5.38,5.38h-5.38c-2.974,0-5.38-2.407-5.38-5.38l0,0
				c0-2.974,2.406-5.38,5.38-5.38h5.38C212.154,230.702,214.561,233.108,214.561,236.082L214.561,236.082z"/>
		</g>
		<g>
			<path fill="#E5E5E4" d="M241.461,236.082c0,2.973-2.407,5.38-5.38,5.38h-5.38c-2.974,0-5.38-2.407-5.38-5.38l0,0
				c0-2.974,2.406-5.38,5.38-5.38h5.38C239.055,230.702,241.461,233.108,241.461,236.082L241.461,236.082z"/>
		</g>
		<g>
			<path fill="#E5E5E4" d="M268.362,236.082c0,2.973-2.406,5.38-5.38,5.38h-5.38c-2.974,0-5.38-2.407-5.38-5.38l0,0
				c0-2.974,2.406-5.38,5.38-5.38h5.38C265.955,230.702,268.362,233.108,268.362,236.082L268.362,236.082z"/>
		</g>
		<g>
			<path fill="#EFEFEF" d="M58.538,230.702c-3.741,0-7.35-0.562-10.76-1.581v28.482v21.52h10.76V230.702z"/>
		</g>
		<g>
			<path fill="#BBEAD9" d="M31.637,193.041c0-18.967,14.039-34.619,32.281-37.235c-1.76-0.252-3.547-0.426-5.38-0.426
				c-20.801,0-37.661,16.86-37.661,37.661s16.86,37.661,37.661,37.661c1.833,0,3.62-0.173,5.38-0.426
				C45.676,227.66,31.637,212.008,31.637,193.041z"/>
		</g>
		<g>
			<path fill="#BBEAD9" d="M31.637,90.819c0-18.967,14.039-34.619,32.281-37.235c-1.76-0.252-3.547-0.425-5.38-0.425
				c-20.801,0-37.661,16.86-37.661,37.661c0,20.801,16.86,37.661,37.661,37.661c1.833,0,3.62-0.173,5.38-0.426
				C45.676,125.438,31.637,109.786,31.637,90.819z"/>
		</g>
		<g>
			<path fill="#9AD7D2" d="M283.735,77.29c-1.529-2.549-4.828-3.379-7.382-1.844l-53.801,32.281
				c-0.878,0.525-1.587,1.292-2.044,2.206l-27.258,54.516l-54.5-118.914c-0.735-1.597-2.207-2.743-3.94-3.053
				c-1.729-0.315-3.51,0.247-4.755,1.492L94.481,79.549c1.114,3.557,1.718,7.345,1.718,11.27c0,0.794-0.068,1.566-0.121,2.348
				l36.116-36.116l55.955,122.093c0.862,1.881,2.732,3.1,4.802,3.137c0.026,0,0.058,0,0.089,0c2.033,0,3.898-1.151,4.812-2.974
				l31.582-63.159l52.456-31.477C284.439,83.143,285.264,79.838,283.735,77.29z"/>
		</g>
		<g>
			<path fill="#EFEFEF" d="M58.538,20.877h-10.76v33.862c3.41-1.019,7.019-1.581,10.76-1.581V20.877z"/>
		</g>
		<g>
			<path fill="#EFEFEF" d="M58.538,128.48c-3.741,0-7.35-0.562-10.76-1.581v30.063c3.41-1.019,7.019-1.581,10.76-1.581V128.48z"/>
		</g>
	</g>
	<g>
		<g>
			<path fill="#161616" d="M72.64,98.159c0-2.864-0.836-5.086-2.496-6.699c-1.676-1.608-3.935-2.926-6.825-3.951
				c-2.89-1.035-4.66-1.792-5.344-2.285c-0.667-0.494-0.993-1.287-0.993-2.375c0-0.673,0.284-1.251,0.862-1.713
				c0.583-0.473,1.271-0.693,2.086-0.693c1.629,0,3.389,0.982,5.28,2.963l6.526-4.141c-2.464-2.616-5.128-4.256-7.997-4.959
				c0.016-0.137,0.084-0.268,0.084-0.405c0-1.114-0.441-2.223-1.287-3.074c-1.624-1.534-4.272-1.618-6.069,0.079
				c-0.757,0.773-1.187,1.881-1.187,2.995c0,0.247,0.095,0.478,0.137,0.715c-1.487,0.473-2.821,1.172-3.967,2.107
				c-2.327,1.876-3.473,4.298-3.473,7.256c0,4.913,3.237,8.459,9.688,10.64c1.65,0.546,2.553,0.909,2.706,1.103
				c0.363,0,0.94,0.231,1.718,0.714c0.777,0.484,1.161,1.183,1.161,2.112c0,0.731-0.342,1.377-1.014,1.949
				c-0.662,0.568-1.44,0.851-2.285,0.851c-1.886,0-3.689-1.56-5.448-4.708l-7.766,3.652c1.65,2.837,3.657,4.939,6.027,6.316
				c0.856,0.504,1.718,0.814,2.585,1.129c-0.021,0.105-0.068,0.221-0.068,0.331c0,1.108,0.431,2.222,1.277,3.068
				c0.773,0.783,1.871,1.203,2.99,1.203c1.114,0,2.264-0.42,3.037-1.287c0.856-0.762,1.334-1.876,1.334-2.984v-0.021
				c0-0.493,3.515-1.245,5.018-2.474C71.437,103.518,72.64,101.038,72.64,98.159z"/>
		</g>
		<g>
			<path fill="#161616" d="M75.146,196.461c-2.574-1.497-5.863-0.625-7.356,1.944c-1.965,3.378-5.427,5.396-9.252,5.396
				c-3.961,0-7.398-2.18-9.263-5.38h3.883c2.974,0,5.38-2.407,5.38-5.38c0-2.974-2.407-5.38-5.38-5.38h-3.883
				c1.865-3.2,5.302-5.38,9.263-5.38c3.825,0,7.287,2.018,9.252,5.396c1.493,2.569,4.781,3.442,7.356,1.944
				c2.57-1.498,3.436-4.787,1.944-7.356c-3.856-6.626-10.965-10.745-18.552-10.745c-9.998,0-18.352,6.883-20.759,16.14h-0.762
				c-2.974,0-5.38,2.407-5.38,5.38c0,2.974,2.406,5.38,5.38,5.38h0.762c2.407,9.258,10.76,16.14,20.759,16.14
				c7.587,0,14.695-4.119,18.552-10.745C78.582,201.248,77.715,197.959,75.146,196.461z"/>
		</g>
		<g>
			<path fill="#161616" d="M58.538,236.082c-23.732,0-43.041-19.309-43.041-43.041S34.805,150,58.538,150
				c23.732,0,43.041,19.309,43.041,43.041S82.27,236.082,58.538,236.082z M58.538,160.76c-17.801,0-32.281,14.48-32.281,32.281
				s14.48,32.281,32.281,32.281c17.801,0,32.281-14.48,32.281-32.281S76.338,160.76,58.538,160.76z"/>
		</g>
		<g>
			<path fill="#161616" d="M280.425,160.923l-86.082-21.52c-1.997-0.515-4.145,0.2-5.469,1.813l-43.156,52.75l-12.426-24.852
				c-0.662-1.324-1.839-2.317-3.252-2.742c-1.403-0.415-2.942-0.252-4.229,0.478l-30.657,17.517c0.662,2.79,1.045,5.685,1.045,8.674
				c0,1.087-0.074,2.154-0.163,3.216l30.174-17.244l13.598,27.195c0.814,1.634,2.401,2.737,4.219,2.942
				c0.2,0.021,0.394,0.032,0.594,0.032c1.603,0,3.137-0.714,4.166-1.976l46.257-56.538l82.777,20.69c2.869,0.71,5.8-1.03,6.52-3.914
				C285.064,164.564,283.309,161.643,280.425,160.923z"/>
		</g>
		<g>
			<path fill="#161616" d="M283.735,77.29c-1.529-2.549-4.828-3.379-7.382-1.844l-53.801,32.281
				c-0.878,0.525-1.587,1.292-2.044,2.206l-27.258,54.516l-54.5-118.914c-0.735-1.597-2.207-2.743-3.94-3.053
				c-1.729-0.315-3.51,0.247-4.755,1.492L94.481,79.549c1.114,3.557,1.718,7.345,1.718,11.27c0,0.794-0.068,1.566-0.121,2.348
				l36.116-36.116l55.955,122.093c0.862,1.881,2.732,3.1,4.802,3.137c0.026,0,0.058,0,0.089,0c2.033,0,3.898-1.151,4.812-2.974
				l31.582-63.159l52.456-31.477C284.439,83.143,285.264,79.838,283.735,77.29z"/>
		</g>
		<g>
			<path fill="#161616" d="M69.298,60.12c-0.515,0-1.035-0.073-1.539-0.226c-6.021-1.797-12.42-1.797-18.442,0
				c-1.618,0.499-3.389,0.173-4.755-0.841c-1.361-1.014-2.165-2.611-2.165-4.314V20.877c0-2.974,2.406-5.38,5.38-5.38h21.52
				c2.974,0,5.38,2.406,5.38,5.38v33.862c0,1.702-0.804,3.3-2.165,4.314C71.573,59.752,70.443,60.12,69.298,60.12z M58.538,47.778
				c1.797,0,3.594,0.116,5.38,0.341V26.257h-10.76v21.862C54.944,47.894,56.741,47.778,58.538,47.778z"/>
		</g>
		<g>
			<path fill="#161616" d="M69.298,162.342c-0.515,0-1.035-0.074-1.539-0.226c-6.021-1.797-12.42-1.797-18.442,0
				c-1.618,0.494-3.389,0.179-4.755-0.841c-1.361-1.014-2.165-2.611-2.165-4.314v-30.063c0-1.702,0.804-3.299,2.165-4.313
				c1.366-1.009,3.137-1.329,4.755-0.841c6.021,1.797,12.42,1.797,18.442,0c1.634-0.489,3.394-0.168,4.755,0.841
				c1.361,1.014,2.165,2.611,2.165,4.313v30.063c0,1.702-0.804,3.299-2.165,4.314C71.573,161.974,70.443,162.342,69.298,162.342z
				 M58.538,150c1.797,0,3.594,0.116,5.38,0.342v-16.823c-3.573,0.452-7.188,0.452-10.76,0v16.823
				C54.944,150.116,56.741,150,58.538,150z"/>
		</g>
		<g>
			<path fill="#161616" d="M106.959,42.398c0,2.973-2.407,5.38-5.38,5.38h-5.38c-2.974,0-5.38-2.407-5.38-5.38l0,0
				c0-2.974,2.406-5.38,5.38-5.38h5.38C104.552,37.018,106.959,39.424,106.959,42.398L106.959,42.398z"/>
		</g>
		<g>
			<path fill="#161616" d="M133.859,42.398c0,2.973-2.407,5.38-5.38,5.38h-5.38c-2.974,0-5.38-2.407-5.38-5.38l0,0
				c0-2.974,2.406-5.38,5.38-5.38h5.38C131.453,37.018,133.859,39.424,133.859,42.398L133.859,42.398z"/>
		</g>
		<g>
			<path fill="#161616" d="M160.76,42.398c0,2.973-2.407,5.38-5.38,5.38H150c-2.974,0-5.38-2.407-5.38-5.38l0,0
				c0-2.974,2.406-5.38,5.38-5.38h5.38C158.353,37.018,160.76,39.424,160.76,42.398L160.76,42.398z"/>
		</g>
		<g>
			<path fill="#161616" d="M187.66,42.398c0,2.973-2.407,5.38-5.38,5.38h-5.38c-2.974,0-5.38-2.407-5.38-5.38l0,0
				c0-2.974,2.406-5.38,5.38-5.38h5.38C185.254,37.018,187.66,39.424,187.66,42.398L187.66,42.398z"/>
		</g>
		<g>
			<path fill="#161616" d="M214.561,42.398c0,2.973-2.407,5.38-5.38,5.38h-5.38c-2.974,0-5.38-2.407-5.38-5.38l0,0
				c0-2.974,2.406-5.38,5.38-5.38h5.38C212.154,37.018,214.561,39.424,214.561,42.398L214.561,42.398z"/>
		</g>
		<g>
			<path fill="#161616" d="M241.461,42.398c0,2.973-2.407,5.38-5.38,5.38h-5.38c-2.974,0-5.38-2.407-5.38-5.38l0,0
				c0-2.974,2.406-5.38,5.38-5.38h5.38C239.055,37.018,241.461,39.424,241.461,42.398L241.461,42.398z"/>
		</g>
		<g>
			<path fill="#161616" d="M268.362,42.398c0,2.973-2.406,5.38-5.38,5.38h-5.38c-2.974,0-5.38-2.407-5.38-5.38l0,0
				c0-2.974,2.406-5.38,5.38-5.38h5.38C265.955,37.018,268.362,39.424,268.362,42.398L268.362,42.398z"/>
		</g>
		<g>
			<path fill="#161616" d="M106.959,236.082c0,2.973-2.407,5.38-5.38,5.38h-5.38c-2.974,0-5.38-2.407-5.38-5.38l0,0
				c0-2.974,2.406-5.38,5.38-5.38h5.38C104.552,230.702,106.959,233.108,106.959,236.082L106.959,236.082z"/>
		</g>
		<g>
			<path fill="#161616" d="M133.859,236.082c0,2.973-2.407,5.38-5.38,5.38h-5.38c-2.974,0-5.38-2.407-5.38-5.38l0,0
				c0-2.974,2.406-5.38,5.38-5.38h5.38C131.453,230.702,133.859,233.108,133.859,236.082L133.859,236.082z"/>
		</g>
		<g>
			<path fill="#161616" d="M160.76,236.082c0,2.973-2.407,5.38-5.38,5.38H150c-2.974,0-5.38-2.407-5.38-5.38l0,0
				c0-2.974,2.406-5.38,5.38-5.38h5.38C158.353,230.702,160.76,233.108,160.76,236.082L160.76,236.082z"/>
		</g>
		<g>
			<path fill="#161616" d="M187.66,236.082c0,2.973-2.407,5.38-5.38,5.38h-5.38c-2.974,0-5.38-2.407-5.38-5.38l0,0
				c0-2.974,2.406-5.38,5.38-5.38h5.38C185.254,230.702,187.66,233.108,187.66,236.082L187.66,236.082z"/>
		</g>
		<g>
			<path fill="#161616" d="M214.561,236.082c0,2.973-2.407,5.38-5.38,5.38h-5.38c-2.974,0-5.38-2.407-5.38-5.38l0,0
				c0-2.974,2.406-5.38,5.38-5.38h5.38C212.154,230.702,214.561,233.108,214.561,236.082L214.561,236.082z"/>
		</g>
		<g>
			<path fill="#161616" d="M241.461,236.082c0,2.973-2.407,5.38-5.38,5.38h-5.38c-2.974,0-5.38-2.407-5.38-5.38l0,0
				c0-2.974,2.406-5.38,5.38-5.38h5.38C239.055,230.702,241.461,233.108,241.461,236.082L241.461,236.082z"/>
		</g>
		<g>
			<path fill="#161616" d="M268.362,236.082c0,2.973-2.406,5.38-5.38,5.38h-5.38c-2.974,0-5.38-2.407-5.38-5.38l0,0
				c0-2.974,2.406-5.38,5.38-5.38h5.38C265.955,230.702,268.362,233.108,268.362,236.082L268.362,236.082z"/>
		</g>
		<g>
			<path fill="#161616" d="M279.122,284.503h-32.281c-2.974,0-5.38-2.406-5.38-5.38c0-2.974,2.406-5.38,5.38-5.38h26.9v-10.76
				H69.298c-2.974,0-5.38-2.406-5.38-5.38V235.74c-3.573,0.452-7.188,0.452-10.76,0v38.002h172.164c2.974,0,5.38,2.406,5.38,5.38
				c0,2.974-2.406,5.38-5.38,5.38H47.778c-2.974,0-5.38-2.406-5.38-5.38V229.12c0-1.702,0.804-3.299,2.165-4.313
				c1.366-1.009,3.137-1.329,4.755-0.841c6.021,1.797,12.42,1.797,18.442,0c1.634-0.489,3.394-0.168,4.755,0.841
				c1.361,1.014,2.165,2.611,2.165,4.313v23.102h204.444c2.974,0,5.38,2.406,5.38,5.38v21.52
				C284.502,282.096,282.096,284.503,279.122,284.503z"/>
		</g>
		<g>
			<path fill="#161616" d="M58.538,133.86c-18.893,0-35.848-12.641-41.233-30.746c-0.851-2.848,0.772-5.842,3.62-6.688
				c2.858-0.846,5.843,0.778,6.688,3.62c4.04,13.576,16.76,23.055,30.925,23.055c17.801,0,32.281-14.48,32.281-32.281
				s-14.48-32.281-32.281-32.281c-14.165,0-26.885,9.478-30.925,23.055c-0.846,2.848-3.825,4.476-6.688,3.62
				c-2.848-0.846-4.471-3.841-3.62-6.688c5.385-18.105,22.34-30.746,41.233-30.746c23.732,0,43.041,19.309,43.041,43.041
				C101.579,114.551,82.27,133.86,58.538,133.86z"/>
		</g>
	</g>
</g>
</svg>
