<?xml version="1.0" encoding="iso-8859-1"?>
<!-- Generator: Adobe Illustrator 19.0.0, SVG Export Plug-In . SVG Version: 6.00 Build 0)  -->
<svg xmlns="http://www.w3.org/2000/svg" xmlns:xlink="http://www.w3.org/1999/xlink" version="1.1" id="Capa_1" x="0px" y="0px" viewBox="0 0 512 512" style="enable-background:new 0 0 512 512;" xml:space="preserve">
<path style="fill:#9B6E55;" d="M272.033,336.161v32.065c0,4.427,3.589,8.016,8.016,8.016h16.032c4.427,0,8.016-3.589,8.016-8.016  v-32.065H272.033z"/>
<path style="fill:#F5DCB4;" d="M312.114,7.5h-48.097c-8.854,0-16.032,7.178-16.032,16.032v304.613  c0,8.854,7.178,16.032,16.032,16.032h48.097c8.854,0,16.032-7.178,16.032-16.032V23.532C328.146,14.678,320.968,7.5,312.114,7.5z"/>
<path style="fill:#9B6E55;" d="M296.082,504.5H280.05c-4.427,0-8.016-3.589-8.016-8.016v-16.032c0-4.427,3.589-8.016,8.016-8.016  h16.032c4.427,0,8.016,3.589,8.016,8.016v16.032C304.098,500.911,300.509,504.5,296.082,504.5z"/>
<path style="fill:#EBC9A0;" d="M272.033,328.145V160.803c0-4.139,1.499-8.22,4.477-11.094  c12.057-11.634,19.571-27.928,19.571-46.016s-7.514-34.382-19.571-46.016c-2.979-2.874-4.477-6.955-4.477-11.094V23.532  c0-8.855,7.178-16.032,16.032-16.032h-24.048c-8.854,0-16.032,7.178-16.032,16.032v304.613c0,8.854,7.178,16.032,16.032,16.032  h24.048C279.211,344.177,272.033,336.999,272.033,328.145z"/>
<circle style="fill:#FF6991;" cx="231.951" cy="103.69" r="48.1"/>
<path style="fill:#FF507D;" d="M256.001,127.742c-26.563,0-48.097-21.534-48.097-48.097c0-7.053,1.555-13.731,4.283-19.766  c-16.693,7.544-28.331,24.304-28.331,43.814c0,26.563,21.534,48.097,48.097,48.097c19.51,0,36.27-11.638,43.814-28.331  C269.732,126.187,263.054,127.742,256.001,127.742z"/>
<path d="M312.114,0h-48.097c-12.976,0-23.532,10.557-23.532,23.532c0,4.142,3.358,7.5,7.5,7.5s7.5-3.358,7.5-7.5  c0-4.705,3.828-8.532,8.532-8.532h48.097c4.705,0,8.532,3.828,8.532,8.532v304.613c0,4.705-3.828,8.532-8.532,8.532h-48.097  c-4.705,0-8.532-3.828-8.532-8.532V183.851c0-4.142-3.358-7.5-7.5-7.5s-7.5,3.358-7.5,7.5v144.294  c0,12.976,10.557,23.532,23.532,23.532h0.516v16.548c0,8.556,6.96,15.516,15.516,15.516h0.516v81.194h-0.516  c-8.556,0-15.516,6.96-15.516,15.516v16.032c0,8.556,6.96,15.517,15.516,15.517h16.032c8.556,0,15.516-6.961,15.516-15.517v-16.032  c0-8.555-6.96-15.516-15.516-15.516h-0.516v-81.194h0.516c8.556,0,15.516-6.96,15.516-15.516v-16.548h0.516  c12.976,0,23.532-10.557,23.532-23.532V23.532C335.646,10.557,325.089,0,312.114,0z M296.598,480.451v16.032  c0,0.285-0.231,0.517-0.516,0.517H280.05c-0.285,0-0.516-0.231-0.516-0.517v-16.032c0-0.284,0.231-0.516,0.516-0.516h16.032  C296.366,479.936,296.598,480.167,296.598,480.451z M296.598,368.226c0,0.285-0.231,0.516-0.516,0.516H280.05  c-0.285,0-0.516-0.231-0.516-0.516v-16.548h17.064V368.226z"/>
<path d="M287.549,103.693c0-30.656-24.94-55.597-55.597-55.597s-55.597,24.94-55.597,55.597s24.94,55.597,55.597,55.597  S287.549,134.35,287.549,103.693z M272.549,103.693c0,3.801-0.536,7.477-1.518,10.969c-3.624,1.038-7.319,1.571-11.022,1.571  c-22.385,0-40.597-18.211-40.597-40.597c0-3.703,0.534-7.399,1.571-11.023c3.492-0.982,7.168-1.518,10.969-1.518  C254.338,63.097,272.549,81.308,272.549,103.693z M231.953,144.291c-22.385,0-40.597-18.212-40.597-40.597  c0-11.783,5.05-22.406,13.095-29.828c-0.019,0.59-0.039,1.181-0.039,1.772c0,30.656,24.941,55.597,55.597,55.597  c0.591,0,1.181-0.019,1.772-0.038C254.358,139.24,243.736,144.291,231.953,144.291z"/>
<g>
</g>
<g>
</g>
<g>
</g>
<g>
</g>
<g>
</g>
<g>
</g>
<g>
</g>
<g>
</g>
<g>
</g>
<g>
</g>
<g>
</g>
<g>
</g>
<g>
</g>
<g>
</g>
<g>
</g>
</svg>
