<?xml version="1.0" encoding="iso-8859-1"?>
<!-- Generator: Adobe Illustrator 19.0.0, SVG Export Plug-In . SVG Version: 6.00 Build 0)  -->
<svg version="1.1" id="Layer_1" xmlns="http://www.w3.org/2000/svg" xmlns:xlink="http://www.w3.org/1999/xlink" x="0px" y="0px"
	 viewBox="0 0 512.002 512.002" style="enable-background:new 0 0 512.002 512.002;" xml:space="preserve">
<circle style="fill:#FFA163;" cx="256.001" cy="150.768" r="32.507"/>
<path style="fill:#FFDC7B;" d="M440.06,416.475c-0.293,28.954-42.172,37.982-78.618,42.621c-18.432,2.341-36.665,3.5-49.236,4.075
	v24.315c0,9.477-7.91,17.105-17.492,16.656c-8.976-0.418-15.872-8.15-15.872-17.136v-39.967c0-9.132,7.325-16.562,16.447-16.687
	c0.261,0,26.07-0.387,53.729-3.385c28.776-3.124,43.76-7.272,51.378-10.324c-9.017-3.521-27.951-8.631-66.612-12.581
	c-34.471-3.521-66.832-4.263-67.156-4.263c-0.366-0.01-5.496-0.021-10.627-0.021c-5.13,0-10.261,0.01-10.627,0.021
	c-0.324,0-32.684,0.742-67.156,4.263c-38.661,3.95-57.595,9.059-66.612,12.581c7.638,3.051,22.685,7.22,51.608,10.344
	c27.648,2.988,53.238,3.365,53.499,3.365c9.122,0.125,16.447,7.555,16.447,16.687v40.448c0,9.477-7.899,17.105-17.481,16.656
	c-8.976-0.418-15.882-8.15-15.882-17.136v-23.834c-12.57-0.575-30.804-1.735-49.236-4.075
	c-36.446-4.639-78.326-13.667-78.618-42.621c-0.219-22.685,27.105-31.096,36.091-33.865c13.918-4.284,33.008-7.868,56.738-10.637
	c23.458-2.748,46.655-4.169,61.973-4.88c2.372-0.104,4.232-2.069,4.232-4.441V241.737c0-13.824,11.212-25.036,25.025-25.036
	c0.303,0,0.606,0.01,0.909,0.021c13.563,0.481,24.116,12.037,24.116,25.61v120.32c0,2.372,1.86,4.336,4.232,4.441
	c15.318,0.711,38.515,2.132,61.973,4.88c23.73,2.769,42.82,6.353,56.738,10.637C412.956,385.379,440.28,393.791,440.06,416.475z"/>
<path style="fill:#F0AE59;" d="M256.001,216.701v183.077c-5.13,0-10.261,0.01-10.627,0.021c-0.324,0-32.684,0.742-67.156,4.263
	c-38.661,3.95-57.595,9.059-66.612,12.581c7.638,3.051,22.685,7.22,51.608,10.344c27.648,2.988,53.238,3.365,53.499,3.365
	c9.122,0.125,16.447,7.555,16.447,16.687v40.448c0,9.477-7.899,17.105-17.481,16.656c-8.976-0.418-15.882-8.15-15.882-17.136
	v-23.834c-12.57-0.575-30.804-1.735-49.236-4.075c-36.446-4.639-78.326-13.667-78.618-42.621
	c-0.219-22.685,27.105-31.096,36.091-33.865c13.918-4.284,33.008-7.868,56.738-10.637c23.458-2.748,46.655-4.169,61.973-4.88
	c2.372-0.104,4.232-2.069,4.232-4.441V241.737C230.976,227.913,242.188,216.701,256.001,216.701z"/>
<polygon style="fill:#A9CF54;" points="256.001,360.053 256.001,204.17 154.495,183.869 154.495,338.471 "/>
<polygon style="fill:#8AA848;" points="175.393,188.048 154.495,183.869 154.495,338.471 175.393,342.915 "/>
<polygon style="fill:#A9CF54;" points="256.001,360.053 256.001,204.17 357.508,183.869 357.508,338.471 "/>
<polygon style="fill:#8AA848;" points="276.899,199.99 256.001,204.17 256.001,360.053 276.899,355.61 "/>
<g>
	<path style="fill:#FFDC7B;" d="M128.837,315.001c-8.505,0-15.772-6.475-16.588-15.113c-0.864-9.152,5.836-17.273,14.975-18.171
		c5.174-0.534,20.72-3.736,30.489-12.046c7.018-5.967,17.546-5.12,23.514,1.899c5.968,7.018,5.119,17.546-1.899,23.514
		c-19.566,16.641-45.959,19.563-48.904,19.841C129.893,314.977,129.363,315.001,128.837,315.001z"/>
	<path style="fill:#FFDC7B;" d="M383.167,315.001c-0.526,0-1.055-0.025-1.59-0.075c-2.946-0.278-29.339-3.199-48.904-19.841
		c-7.016-5.968-7.867-16.497-1.899-23.514c5.968-7.018,16.495-7.866,23.514-1.899c9.772,8.311,25.325,11.513,30.493,12.046
		c9.173,0.866,15.871,9.001,15.005,18.174C398.972,308.53,391.674,315.001,383.167,315.001z"/>
</g>
<path d="M429.813,385.553c-8.881-5.921-18.78-8.967-23.535-10.43c-4.136-1.275-8.522,1.048-9.795,5.185
	c-1.274,4.137,1.048,8.522,5.185,9.795c20.67,6.36,30.664,14.963,30.551,26.3c-0.173,17.622-22.977,28.717-71.764,34.916
	c-18.361,2.332-36.569,3.478-48.611,4.028c-4.185,0.191-7.478,3.639-7.478,7.828v24.306c0,2.442-0.974,4.716-2.742,6.402
	c-1.765,1.684-4.088,2.547-6.541,2.431c-4.635-0.217-8.407-4.392-8.407-9.305v-39.976c0-4.811,3.914-8.778,8.712-8.845
	c0.256-0.003,26.402-0.392,54.472-3.438c24.008-2.604,41.99-6.249,53.45-10.832c2.986-1.195,4.94-4.093,4.927-7.309
	c-0.014-3.217-1.991-6.099-4.987-7.267c-9.597-3.746-29.302-9.055-68.661-13.076c-33.375-3.411-64.32-4.225-67.783-4.307
	c-0.91-0.022-20.696-0.022-21.647,0.001c-3.419,0.081-34.364,0.895-67.738,4.306c-39.355,4.02-59.061,9.329-68.662,13.075
	c-2.997,1.169-4.975,4.051-4.988,7.267c-0.014,3.216,1.938,6.115,4.925,7.309c11.493,4.599,29.555,8.253,53.683,10.86
	c27.984,3.023,53.986,3.409,54.227,3.413c4.811,0.066,8.725,4.033,8.725,8.845v40.447c0,2.442-0.974,4.716-2.742,6.402
	c-1.766,1.683-4.079,2.552-6.542,2.431c-4.635-0.217-8.406-4.392-8.406-9.305v-23.835c0-4.189-3.295-7.637-7.478-7.828
	c-9.484-0.434-18.836-1.048-27.8-1.826c-4.307-0.385-8.11,2.818-8.486,7.128c-0.374,4.312,2.817,8.112,7.129,8.486
	c6.806,0.591,13.829,1.09,20.961,1.489v16.387c0,13.381,10.253,24.346,23.342,24.962c6.773,0.318,13.201-2.076,18.098-6.747
	c4.827-4.605,7.596-11.073,7.596-17.742v-40.447c0-13.337-10.849-24.335-24.19-24.516c-0.252-0.004-25.431-0.372-52.752-3.325
	c-7.685-0.83-14.335-1.727-20.086-2.651c9.242-1.618,20.741-3.224,35.039-4.683c33.346-3.406,65.181-4.197,66.499-4.229
	c1.078-0.015,19.905-0.016,20.962-0.001c1.339,0.032,33.172,0.823,66.52,4.23c14.295,1.46,25.795,3.067,35.036,4.682
	c-5.695,0.915-12.272,1.806-19.861,2.629c-27.352,2.967-52.723,3.344-52.983,3.348c-13.336,0.182-24.184,11.179-24.184,24.516
	v39.976c0,13.381,10.254,24.346,23.343,24.962c0.401,0.02,0.8,0.028,1.197,0.028c6.331,0,12.293-2.38,16.899-6.775
	c4.828-4.605,7.596-11.073,7.596-17.742v-16.858c11.783-0.661,27.015-1.803,42.392-3.756c16.679-2.119,37.999-5.485,54.968-12.758
	c20.072-8.603,30.332-21.238,30.493-37.552C448.012,404.242,441.761,393.52,429.813,385.553z"/>
<path d="M129.807,447.952c-33.516-6.406-49.88-16.728-50.028-31.552c-0.146-15.086,17.366-22.233,30.559-26.3
	c13.494-4.153,32.113-7.633,55.344-10.342c23.202-2.719,46.209-4.129,61.408-4.835c5.986-0.264,10.778-4.764,11.587-10.542
	l15.693,3.335c0.068,0.015,0.136,0.02,0.204,0.032c0.081,0.015,0.162,0.026,0.243,0.039c0.394,0.061,0.788,0.1,1.182,0.1
	s0.788-0.041,1.182-0.1c0.082-0.013,0.162-0.023,0.243-0.039c0.068-0.013,0.137-0.018,0.205-0.032l15.693-3.335
	c0.81,5.778,5.6,10.277,11.571,10.542c15.215,0.705,38.223,2.116,61.421,4.835c4.256,0.501,7.914,0.961,11.184,1.412
	c0.363,0.05,0.722,0.074,1.078,0.074c3.854,0,7.213-2.844,7.753-6.77c0.59-4.288-2.407-8.242-6.695-8.831
	c-3.373-0.464-7.13-0.938-11.494-1.452c-19.215-2.251-38.26-3.621-53.032-4.441l64.032-13.611c3.62-0.769,6.207-3.965,6.207-7.665
	v-18.655c8.108,2.124,14.129,2.781,15.496,2.911c0.776,0.072,1.557,0.109,2.321,0.109c12.728,0,23.227-9.548,24.422-22.21
	c1.272-13.459-8.629-25.443-22.002-26.707c-3.283-0.337-12.462-2.143-20.236-6.259v-83.791c0-2.348-1.053-4.572-2.868-6.06
	c-1.816-1.489-4.204-2.084-6.506-1.625L256,196.182l-15.42-3.088c-4.25-0.853-8.374,1.901-9.223,6.145
	c-0.85,4.244,1.902,8.374,6.145,9.222l10.661,2.136v139.777l-15.6-3.316c-0.005-0.001-0.01-0.002-0.016-0.003l-70.221-14.926v-17.66
	c7.377-3.16,15.111-7.485,22.082-13.413c4.988-4.243,8.026-10.174,8.552-16.702c0.527-6.529-1.519-12.87-5.762-17.859
	c-6.289-7.394-16.051-10.096-24.873-7.804V193.43l31.221,6.245c4.243,0.852,8.373-1.904,9.222-6.148
	c0.848-4.244-1.904-8.373-6.147-9.221l-40.594-8.12c-2.304-0.461-4.691,0.136-6.506,1.625c-1.816,1.488-2.868,3.713-2.868,6.06
	v83.794c-7.769,4.114-16.941,5.919-20.194,6.256c-13.405,1.316-23.279,13.296-22.012,26.708
	c1.197,12.663,11.682,22.212,24.39,22.212c0.763,0,1.543-0.037,2.325-0.11c1.366-0.129,7.384-0.786,15.492-2.91v18.655
	c0,3.7,2.588,6.896,6.207,7.665l64.031,13.611c-14.764,0.819-33.812,2.189-53.029,4.441c-24.173,2.819-43.731,6.497-58.149,10.935
	c-4.76,1.467-14.664,4.519-23.536,10.436c-11.941,7.965-18.191,18.682-18.07,30.992c0.346,34.865,47.321,43.843,62.758,46.793
	c0.497,0.096,0.992,0.141,1.48,0.141c3.685,0,6.972-2.612,7.688-6.367C136.845,452.868,134.059,448.764,129.807,447.952z
	 M129.696,307.124c-0.293,0.027-0.582,0.042-0.858,0.042c-4.577,0-8.354-3.445-8.785-8.013c-0.457-4.838,3.104-9.161,7.979-9.639
	c6.382-0.659,19.976-3.725,30.563-10.734c0.279-0.172,0.55-0.357,0.805-0.562c1.173-0.812,2.318-1.659,3.393-2.574
	c1.661-1.414,3.699-2.104,5.725-2.104c2.506,0,4.997,1.056,6.744,3.111c1.531,1.799,2.268,4.087,2.078,6.442
	s-1.285,4.495-3.086,6.026C156.203,304.469,130.766,307.023,129.696,307.124z M390.003,292.678c1.5,1.818,2.203,4.118,1.981,6.477
	c-0.423,4.492-4.298,8.01-8.818,8.01c-0.278,0-0.566-0.015-0.855-0.041c-1.073-0.101-26.511-2.655-44.561-18.008
	c-1.8-1.531-2.894-3.671-3.086-6.026c-0.19-2.355,0.548-4.642,2.078-6.442c1.747-2.054,4.238-3.11,6.744-3.11
	c2.026,0,4.064,0.69,5.724,2.102c1.14,0.97,2.354,1.867,3.603,2.721c0.158,0.119,0.319,0.232,0.485,0.34
	c10.609,7.066,24.284,10.152,30.747,10.818C386.391,289.742,388.507,290.863,390.003,292.678z M349.676,258.691
	c-8.821-2.29-18.584,0.411-24.873,7.803c-8.759,10.298-7.508,25.803,2.791,34.561c6.969,5.929,14.705,10.254,22.082,13.413v17.659
	l-70.221,14.926c-0.006,0.001-0.011,0.002-0.018,0.003l-15.599,3.315V210.596l85.838-17.169V258.691z"/>
<path d="M256.001,46.809c4.329,0,7.837-3.508,7.837-7.837V7.837c0-4.329-3.508-7.837-7.837-7.837c-4.328,0-7.837,3.508-7.837,7.837
	v31.136C248.165,43.301,251.673,46.809,256.001,46.809z"/>
<path d="M132.674,74.107c1.452,2.513,4.086,3.918,6.793,3.918c1.33,0,2.678-0.339,3.912-1.052c3.748-2.164,5.031-6.957,2.867-10.705
	l-15.575-26.966c-2.165-3.748-6.959-5.031-10.706-2.866c-3.748,2.164-5.031,6.957-2.867,10.705L132.674,74.107z"/>
<path d="M58.063,148.68l-26.976-15.568c-3.751-2.165-8.542-0.879-10.705,2.87c-2.164,3.749-0.879,8.542,2.87,10.705l26.976,15.568
	c1.234,0.713,2.581,1.05,3.91,1.05c2.708,0,5.344-1.406,6.795-3.92C63.097,155.635,61.811,150.842,58.063,148.68z"/>
<path d="M491.621,135.982c-2.164-3.749-6.956-5.032-10.705-2.87l-26.975,15.568c-3.749,2.163-5.033,6.956-2.87,10.705
	c1.452,2.515,4.086,3.92,6.795,3.92c1.328,0,2.676-0.339,3.91-1.05l26.975-15.568C492.498,144.523,493.784,139.731,491.621,135.982z
	"/>
<path d="M368.623,76.973c1.235,0.714,2.582,1.052,3.912,1.052c2.707,0,5.342-1.405,6.793-3.918l15.574-26.966
	c2.165-3.748,0.882-8.541-2.866-10.705c-3.747-2.165-8.541-0.883-10.705,2.866l-15.574,26.966
	C363.591,70.017,364.876,74.809,368.623,76.973z"/>
<path d="M86.919,171.801c1.319,0.856,2.798,1.265,4.261,1.265c2.565,0,5.078-1.258,6.58-3.569
	c34.964-53.841,94.125-85.986,158.254-85.986c64.111,0,123.262,32.131,158.231,85.95c2.358,3.631,7.211,4.661,10.841,2.302
	c3.63-2.358,4.66-7.212,2.302-10.841c-37.87-58.286-101.935-93.085-171.374-93.085c-69.458,0-133.532,34.812-171.399,93.122
	C82.258,164.59,83.289,169.444,86.919,171.801z"/>
<path d="M215.653,150.766c0,22.249,18.1,40.349,40.349,40.349c22.249,0,40.349-18.1,40.349-40.349s-18.1-40.349-40.349-40.349
	C233.752,110.417,215.653,128.517,215.653,150.766z M280.677,150.766c0,13.606-11.07,24.675-24.675,24.675
	c-13.606,0-24.675-11.07-24.675-24.675c0-13.606,11.07-24.675,24.675-24.675S280.677,137.161,280.677,150.766z"/>
<g>
</g>
<g>
</g>
<g>
</g>
<g>
</g>
<g>
</g>
<g>
</g>
<g>
</g>
<g>
</g>
<g>
</g>
<g>
</g>
<g>
</g>
<g>
</g>
<g>
</g>
<g>
</g>
<g>
</g>
</svg>
